<svg width="56" height="57" viewBox="0 0 56 57" fill="none" xmlns="http://www.w3.org/2000/svg">
<path d="M10.8382 15.3647C15.7383 16.9021 21.9893 17.6853 29.5236 17.6853C37.2213 17.6853 43.3323 16.9021 48.209 15.3647C53.4123 13.8563 55.9067 11.8257 55.9067 9.91123C55.9067 8.54786 54.7867 7.2135 52.7567 6.19823C53.2233 6.57533 53.5733 7.2135 53.5733 7.90969C53.5733 9.85321 51.2167 11.4486 46.4823 12.783C42.0956 13.9723 36.498 14.8135 29.6869 14.8135C23.1069 14.8135 17.2526 13.9723 13.0316 12.841C8.48157 11.4486 6.10157 9.94023 6.10157 7.9677C6.10157 7.15549 6.4049 6.4593 7.3149 5.64708C4.46823 7.01045 2.92823 8.17076 2.92823 9.91123C3.09156 11.8838 5.6349 13.8563 10.8382 15.3647ZM21.7793 9.09901C27.0759 8.51885 28.6136 4.28662 34.818 3.59043C37.8746 3.30035 39.8113 4.05455 40.0213 5.38891C40.208 6.63625 38.6913 7.47747 36.848 7.65152C34.3046 7.97061 33.2546 6.8393 33.0446 5.76601C31.1546 6.02708 30.8513 7.01335 30.9446 7.70954C31.1546 9.04389 33.4413 10.3783 37.3613 9.91413C41.7946 9.47901 43.288 7.30343 42.9146 5.12784C42.448 2.28508 39.0413 -0.0935586 32.928 0.631636C25.0903 1.50187 25.1369 6.02708 19.7959 6.57823C17.6026 6.8393 16.3893 6.20113 16.1793 5.12784C16.0393 4.05455 17.1126 3.53241 18.3726 3.41638C19.5393 3.27134 20.9626 3.53241 21.6393 3.99654C22.1293 3.67745 22.2926 3.35837 22.2459 2.98127C22.0126 1.96599 20.4026 1.53088 18.3726 1.70492C14.4059 2.14004 14.4059 4.34463 14.5459 5.3309C14.9426 7.85457 17.9993 9.53703 21.7793 9.10191V9.09901ZM48.419 20.238C43.519 21.6594 37.268 22.5847 29.7336 22.5847C22.0336 22.5847 15.7593 21.5985 10.8849 20.2641C6.49824 18.8717 4.1649 17.3343 3.34823 15.7389C3.76823 19.3068 4.49157 22.7588 5.4249 26.0367C4.3049 26.9069 3.30156 27.9802 2.39156 29.4306C0.727055 31.9539 -0.120734 35.1582 0.0138899 38.4172C0.0977038 39.9046 0.436773 41.3525 1.00829 42.6634C1.57981 43.9744 2.37051 45.1179 3.32723 46.0172C5.35723 47.9897 7.55057 48.5699 10.0449 47.9897C11.0016 47.7867 12.0749 47.1775 13.0549 46.7714C11.0016 46.7714 9.27491 45.9592 7.54824 44.2477C6.61105 43.4384 5.81847 42.3972 5.2202 41.1892C4.62193 39.9812 4.23088 38.6326 4.07156 37.2279C3.6049 34.5011 4.07157 31.9774 5.30823 29.7467C5.58823 29.3116 5.89157 28.9345 6.21824 28.5864C6.91824 30.704 7.66491 32.7926 8.50491 34.7361C10.3949 38.304 12.2849 41.405 14.1749 44.7699C14.9916 46.7424 15.5283 48.6859 15.9016 50.6266C17.166 52.797 19.0091 54.3389 21.1026 54.9777C23.7859 56.138 26.5859 56.6602 29.4536 56.4571H29.757C32.6763 56.6155 35.5942 56.1042 38.3646 54.9487C40.3743 54.2179 42.1414 52.7025 43.4046 50.6266H43.568C43.8713 48.683 44.3846 46.7395 45.1313 44.767C46.9956 41.3731 48.909 38.3011 50.7757 34.7361C53.348 28.8165 55.1133 22.4079 56 15.7708C54.9967 17.5113 52.6423 19.0487 48.419 20.238Z" fill="#EFDBC3"/>
</svg>
